<?xml version="1.0" encoding="utf-8"?>
<!-- Generator: Adobe Illustrator 18.1.1, SVG Export Plug-In . SVG Version: 6.00 Build 0)  -->
<svg version="1.1" id="Layer_1" xmlns="http://www.w3.org/2000/svg" xmlns:xlink="http://www.w3.org/1999/xlink" x="0px" y="0px"
	 viewBox="65 13 130 24" enable-background="new 65 13 130 24" xml:space="preserve">
<g>
	<g>
		<g>
			<path d="M182.2,36H77.8C71.3,36,66,31,66,25l0,0c0-6,5.3-11,11.8-11h104.4c6.5,0,11.8,5,11.8,11l0,0C194,31,188.7,36,182.2,36z"
				/>
			<g opacity="0.4">
				<path fill="#FFFFFF" d="M182.2,14c6.5,0,11.8,5,11.8,11s-5.3,11-11.8,11H77.8C71.3,36,66,31,66,25s5.3-11,11.8-11H182.2
					 M182.2,13H77.8C70.7,13,65,18.4,65,25s5.7,12,12.8,12h104.4c7.1,0,12.8-5.4,12.8-12S189.3,13,182.2,13L182.2,13z"/>
			</g>
		</g>
	</g>
	<path fill="#FFFFFF" d="M137.2,20.7v1h-4.5v2.7h3.9v1h-3.9v3.9h-1.1v-8.6H137.2L137.2,20.7z"/>
	<path fill="#FFFFFF" d="M150.6,20.7v7.6h4.5v1h-5.7v-8.6H150.6z"/>
	<path fill="#FFFFFF" d="M158.2,20.7v7.6h4.5v1H157v-8.6H158.2z"/>
	<path fill="#FFFFFF" d="M181.1,29.3l-2-7.2l0,0l-2,7.2H176l-2.2-8.6h1.2l1.7,7.1l0,0l1.9-7.1h1.2l1.9,7.1l0,0l1.7-7.1h1.1l-2.3,8.6
		C182.2,29.3,181.1,29.3,181.1,29.3z"/>
	<path fill="#FFFFFF" d="M143,21.5c1.7,0,3.1,1.6,3.1,3.5s-1.4,3.5-3.1,3.5s-3.1-1.6-3.1-3.5S141.3,21.5,143,21.5 M143,20.5
		c-2.3,0-4.1,2-4.1,4.5s1.8,4.5,4.1,4.5c2.3,0,4.1-2,4.1-4.5S145.3,20.5,143,20.5L143,20.5z"/>
	<path fill="#FFFFFF" d="M168,21.5c1.7,0,3.1,1.6,3.1,3.5s-1.4,3.5-3.1,3.5s-3.1-1.6-3.1-3.5S166.3,21.5,168,21.5 M168,20.5
		c-2.3,0-4.1,2-4.1,4.5s1.8,4.5,4.1,4.5c2.3,0,4.1-2,4.1-4.5S170.3,20.5,168,20.5L168,20.5z"/>
	<g>
		<path fill="#FFFFFF" d="M120.3,25.6v-1c0-1.6,0.7-2.5,1.8-2.5s1.7,0.8,1.7,1.7h1.7v-0.2c0-1.7-1.3-3-3.4-3c-2.3,0-3.6,1.5-3.6,4v1
			c0,2.5,1.3,4,3.6,4c2.2,0,3.4-1.4,3.4-3v-0.2h-1.7c0,0.9-0.6,1.6-1.6,1.6C121,28,120.3,27.2,120.3,25.6L120.3,25.6z M114.8,29.4
			h1.8v-8.6h-1.8V29.4L114.8,29.4z M108.2,23.1c0-0.7,0.5-1.1,1.4-1.1c1,0,1.5,0.6,1.5,1.2h1.7c0-1.5-1.3-2.6-3.2-2.6
			c-1.8,0-3.2,0.9-3.2,2.6c0,1.5,1,2.1,2.2,2.4l1.3,0.3c0.9,0.2,1.3,0.5,1.3,1.1c0,0.7-0.5,1.1-1.6,1.1s-1.7-0.6-1.7-1.2h-1.7
			c0,1.2,0.8,2.6,3.4,2.6c2.1,0,3.4-1,3.4-2.7c0-1.6-1.1-2.2-2.3-2.4l-1.3-0.3C108.6,23.9,108.2,23.6,108.2,23.1L108.2,23.1z
			 M104.6,26.4v-5.6h-1.8v5.4c0,1.1-0.7,1.8-1.7,1.8s-1.7-0.6-1.7-1.8v-5.4h-1.8v5.7c0,1.8,1.3,3.1,3.5,3.1
			C103.3,29.5,104.6,28.3,104.6,26.4L104.6,26.4z M94.2,29.4h1.6v-8.6H94l-2.4,5.3h-0.1l-2.4-5.3h-1.9v8.6H89v-5.6l0,0l2,4.4h1.1
			l2-4.4h0.1V29.4L94.2,29.4z M83.9,25.9c-0.5-0.5-0.8-1.1-0.8-1.9c0-1,0.4-1.7,1.3-2.2c-0.5-0.7-1.2-1.1-2.1-1.2
			c-0.3,0-0.8,0-1.3,0.2c-0.6,0.2-0.9,0.3-0.9,0.3c-0.1,0-0.4-0.1-0.9-0.3c-0.4-0.2-0.8-0.3-1.1-0.3c-0.5,0-1,0.1-1.4,0.4
			c-0.4,0.3-0.8,0.6-1,1.1c-0.3,0.6-0.5,1.2-0.5,2c0,0.7,0.1,1.4,0.4,2.1c0.2,0.7,0.5,1.3,0.9,1.8c0.3,0.5,0.6,0.8,0.8,1
			c0.3,0.3,0.7,0.5,1,0.5c0.2,0,0.5-0.1,0.9-0.2c0.3-0.1,0.7-0.2,1-0.2c0.3,0,0.6,0.1,1,0.2c0.4,0.2,0.7,0.2,0.9,0.2
			c0.4,0,0.7-0.2,1-0.5c0.1-0.1,0.2-0.2,0.4-0.4c0.1-0.2,0.3-0.4,0.4-0.6s0.2-0.3,0.3-0.5c0.1-0.2,0.2-0.4,0.3-0.6
			c0-0.1,0.1-0.2,0.1-0.3s0.1-0.2,0.1-0.3C84.4,26.3,84.2,26.1,83.9,25.9L83.9,25.9z M81.7,19.7c0.4-0.5,0.6-1.1,0.6-1.6V18v-0.1
			c-0.3,0-0.6,0.1-0.9,0.3c-0.3,0.2-0.6,0.4-0.8,0.6c-0.4,0.5-0.6,1-0.6,1.6v0.1v0.1C80.6,20.5,81.2,20.3,81.7,19.7L81.7,19.7z"/>
	</g>
</g>
</svg>
