<svg xmlns="http://www.w3.org/2000/svg" viewBox="0 0 476.9684 132.9516"><defs><style>      .cls-1 {        fill: #fff;      }    </style></defs><g id="Laag_2" data-name="Laag 2"><g id="Laag_1-2" data-name="Laag 1"><g><rect class="cls-1" x="173.104" y="3.8196" width="14.4174" height="53.975"></rect><polygon class="cls-1" points="243.23 3.82 243.23 5.124 227.145 26.946 245.87 56.425 245.87 57.795 230.936 57.795 217.312 36.343 211.582 43.598 211.582 57.795 197.164 57.795 197.164 3.82 211.582 3.82 211.582 28.185 228.393 3.82 243.23 3.82"></polygon><polygon class="cls-1" points="291.005 3.82 291.005 16.155 264.863 16.155 264.863 25.408 289.075 25.408 289.075 36.514 264.863 36.514 264.863 45.456 291.005 45.456 291.005 57.795 250.445 57.795 250.445 3.82 291.005 3.82"></polygon><rect class="cls-1" x="173.1935" y="74.5801" width="14.4174" height="53.975"></rect><polygon class="cls-1" points="211.613 74.58 211.613 116.217 233.282 116.217 233.282 128.555 197.195 128.555 197.195 74.58 211.613 74.58"></polygon><polygon class="cls-1" points="254.021 74.58 254.021 116.217 275.691 116.217 275.691 128.555 239.604 128.555 239.604 74.58 254.021 74.58"></polygon><rect class="cls-1" x="282.0128" y="74.5801" width="14.4174" height="53.975"></rect><path class="cls-1" d="M335.8322,74.58H322.9088l-21.1561,53.975h14.8438l4.2082-11.336h16.5246l4.286,11.336H356.842Zm-12.5343,31.3062L329.42,90.61l5.6431,15.2765Z"></path><path class="cls-1" d="M455.3765,73.73A41.1483,41.1483,0,0,1,475.35,78.5891l-4.9366,10.1781a28.4533,28.4533,0,0,0-14.4174-3.8565q-6.8631,0-6.8632,4.2393,0,3.2355,5.0922,5.0082l6.6142,2.2877q7.9464,2.6892,12.0394,6.4586a13.0369,13.0369,0,0,1,4.09,10.0753,14.1681,14.1681,0,0,1-5.8983,12.0675q-5.9015,4.356-16.1542,4.3576a43.7922,43.7922,0,0,1-12.26-1.7,30.3321,30.3321,0,0,1-9.87-4.7031l5.5528-10.8722q8.5581,6.0928,16.6554,6.0913a10.1555,10.1555,0,0,0,5.4719-1.27,3.838,3.838,0,0,0,2.0076-3.3554q0-3.5436-5.4-5.3193l-6.7076-2.238q-8.4039-2.9274-12.027-6.7076A12.9481,12.9481,0,0,1,434.7122,90a14.3574,14.3574,0,0,1,5.5528-11.8745Q445.8163,73.732,455.3765,73.73Z"></path><polygon class="cls-1" points="149.3 3.82 131.678 37.004 114.056 3.82 99.44 3.82 99.44 57.795 112.961 57.795 112.961 29.645 128.775 57.256 134.581 57.256 150.395 29.645 150.395 57.795 163.915 57.795 163.915 3.82 149.3 3.82"></polygon><polygon class="cls-1" points="163.915 128.628 163.915 74.653 150.395 74.653 150.395 104.814 134.581 75.191 128.775 75.191 112.961 104.814 112.961 74.653 99.44 74.653 99.44 128.628 114.056 128.628 131.678 95.444 149.3 128.628 163.915 128.628"></polygon><polygon class="cls-1" points="362.107 74.653 362.107 128.628 375.627 128.628 375.627 100.478 391.442 128.089 397.247 128.089 413.062 100.478 413.062 128.628 426.582 128.628 426.582 74.653 411.967 74.653 394.344 107.837 376.722 74.653 362.107 74.653"></polygon><g><polygon class="cls-1" points="36.828 0 0 22.552 0 33.714 0 33.721 18.535 45.065 33.123 36.109 20.099 28.133 36.828 17.889 53.558 28.133 0 61.016 0 72.179 0 72.185 18.412 83.455 33.055 74.531 20.099 66.598 73.657 33.722 73.657 33.714 73.657 22.552 36.828 0"></polygon><polygon class="cls-1" points="40.535 58.623 53.558 66.598 0 99.231 0 99.237 0 110.4 36.828 132.952 73.657 110.4 73.657 99.237 73.657 99.23 55.358 88.031 40.715 96.954 53.558 104.819 36.828 115.063 20.099 104.819 73.657 72.187 73.657 72.179 73.657 61.016 55.124 49.668 40.535 58.623"></polygon></g></g></g></g></svg>